<svg xmlns="http://www.w3.org/2000/svg" width="1200" height="330" viewBox="0 0 1200 330" role="img" aria-labelledby="title desc">
<title id="title">Ayushi Hirani — Founder, Hirani Labs</title>
<desc id="desc">AI agents. Connected workflows. Human oversight. Navy banner with a mint orchestration diagram.</desc>
<defs><linearGradient id="bg" x2="1" y2="1"><stop stop-color="#101f2d"/><stop offset="1" stop-color="#183a40"/></linearGradient><pattern id="grid" width="32" height="32" patternUnits="userSpaceOnUse"><circle cx="1" cy="1" r="1" fill="#a1c8c1" opacity=".14"/></pattern></defs>
<rect width="1200" height="330" rx="20" fill="url(#bg)"/><rect width="1200" height="330" rx="20" fill="url(#grid)"/>
<rect x="54" y="48" width="4" height="25" rx="2" fill="#9fe4c5"/>
<g font-family="Arial, Helvetica, sans-serif"><text x="73" y="66" fill="#9fe4c5" font-size="15" letter-spacing="3">FOUNDER / HIRANI LABS</text>
<text x="52" y="145" fill="#f4f6f3" font-size="60" font-weight="700" letter-spacing="-2">Ayushi Hirani</text>
<text x="55" y="194" fill="#c4d8d7" font-size="24">AI agents. Connected workflows.</text>
<text x="55" y="230" fill="#c4d8d7" font-size="24">Human oversight.</text>
<text x="55" y="285" fill="#85b4ac" font-size="14" letter-spacing="2">BUSINESS AUTOMATION + AGENT ORCHESTRATION</text></g>
<g fill="none" stroke="#76b7ac" stroke-width="2"><path d="M790 92H865Q885 92 885 112V153H953"/><path d="M790 245H865Q885 245 885 225V177H953"/><path d="M997 165H1053Q1073 165 1073 145V90"/><path d="M997 165H1053Q1073 165 1073 185V248"/></g>
<g fill="#1b3940" stroke="#73a99e" stroke-width="1.5"><rect x="740" y="66" width="74" height="52" rx="12"/><rect x="740" y="219" width="74" height="52" rx="12"/><rect x="1038" y="43" width="74" height="52" rx="12"/><rect x="1038" y="243" width="74" height="52" rx="12"/></g>
<rect x="935" y="125" width="80" height="80" rx="20" fill="#9fe4c5"/>
<g stroke="#153333" stroke-width="3" fill="none"><path d="M957 165h36m-18-18v36"/><circle cx="975" cy="165" r="25"/></g>
<g fill="#c7e8dd" font-family="Arial, Helvetica, sans-serif" font-size="13" text-anchor="middle"><text x="777" y="97">CONTEXT</text><text x="777" y="250">TOOLS</text><text x="1075" y="74">REVIEW</text><text x="1075" y="274">ACTION</text></g>
<g fill="#9fe4c5"><circle cx="859" cy="92" r="4"/><circle cx="1073" cy="218" r="4"/></g>
</svg>
